<svg xmlns="http://www.w3.org/2000/svg" viewBox="0 0 300 400" width="100%" height="100%">
    <rect width="300" height="400" rx="12" fill="#09090b" stroke="#1f2937" stroke-width="2"/>
    <rect x="20" y="20" width="260" height="360" rx="8" fill="#18181b" stroke="#27272a" stroke-width="1"/>
    
    <!-- Profile Image placeholder -->
    <circle cx="150" cy="52" r="18" fill="#71717a" opacity="0.6"/>
    <circle cx="150" cy="52" r="14" fill="#27272a"/>
    <path d="M142 63 C 142 58, 158 58, 158 63 Z" fill="#a1a1aa"/>
    <circle cx="150" cy="48" r="5" fill="#a1a1aa"/>

    <!-- Centered Header -->
    <rect x="90" y="78" width="120" height="8" rx="4" fill="#f8fafc"/>
    <rect x="110" y="90" width="80" height="5" rx="2.5" fill="#71717a"/>
    
    <rect x="50" y="102" width="200" height="4" rx="2" fill="#52525b"/>
    <line x1="40" y1="112" x2="260" y2="112" stroke="#27272a" stroke-width="0.5"/>
    
    <!-- Sections -->
    <rect x="40" y="124" width="220" height="4" rx="2" fill="#a1a1aa"/>
    <rect x="40" y="134" width="220" height="3" rx="1.5" fill="#52525b"/>
    <rect x="40" y="141" width="180" height="3" rx="1.5" fill="#52525b"/>

    <rect x="40" y="156" width="220" height="4" rx="2" fill="#a1a1aa"/>
    <rect x="40" y="166" width="130" height="4" rx="2" fill="#d4d4d8"/>
    <rect x="40" y="174" width="220" height="3" rx="1.5" fill="#52525b"/>
    <rect x="40" y="181" width="190" height="3" rx="1.5" fill="#52525b"/>
  </svg>