<svg xmlns="http://www.w3.org/2000/svg" viewBox="0 0 300 400" width="100%" height="100%">
    <rect width="300" height="400" rx="12" fill="#09090b" stroke="#1f2937" stroke-width="2"/>
    <rect x="20" y="20" width="260" height="360" rx="8" fill="#18181b" stroke="#27272a" stroke-width="1"/>
    
    <!-- Profile Photo (small circular left-aligned) -->
    <circle cx="50" cy="45" r="14" fill="#3f3f46" opacity="0.6"/>
    <circle cx="50" cy="45" r="11" fill="#18181b"/>
    <path d="M44 54 C 44 49, 56 49, 56 54 Z" fill="#71717a"/>
    <circle cx="50" cy="42" r="4" fill="#71717a"/>

    <!-- Compact Left Header Info -->
    <rect x="74" y="36" width="130" height="8" rx="4" fill="#f8fafc"/>
    <rect x="74" y="48" width="90" height="4" rx="2" fill="#52525b"/>
    
    <!-- Compact Details -->
    <rect x="40" y="70" width="220" height="3" rx="1.5" fill="#3f3f46"/>

    <rect x="40" y="82" width="220" height="4" rx="2" fill="#a1a1aa"/>
    <rect x="40" y="90" width="220" height="2.5" rx="1" fill="#52525b"/>
    <rect x="40" y="96" width="210" height="2.5" rx="1" fill="#52525b"/>

    <rect x="40" y="106" width="220" height="4" rx="2" fill="#a1a1aa"/>
    <rect x="40" y="114" width="220" height="2.5" rx="1" fill="#52525b"/>
  </svg>