<svg xmlns="http://www.w3.org/2000/svg" viewBox="0 0 300 400" width="100%" height="100%">
    <rect width="300" height="400" rx="12" fill="#09090b" stroke="#1f2937" stroke-width="2"/>
    <rect x="20" y="20" width="260" height="360" rx="8" fill="#18181b" stroke="#27272a" stroke-width="1"/>
    
    <!-- Profile Photo (circular left outline) -->
    <circle cx="58" cy="55" r="18" fill="none" stroke="#e4e4e7" stroke-width="1"/>
    <circle cx="58" cy="55" r="15" fill="#27272a"/>
    <path d="M51 65 C 51 60, 65 60, 65 65 Z" fill="#d4d4d8"/>
    <circle cx="58" cy="51" r="4.5" fill="#d4d4d8"/>

    <!-- Serif Header -->
    <rect x="88" y="42" width="130" height="8" rx="2" fill="#f4f4f5"/>
    <rect x="88" y="56" width="100" height="4" rx="1.5" fill="#a1a1aa"/>
    
    <line x1="40" y1="85" x2="260" y2="85" stroke="#27272a" stroke-width="0.5"/>
    
    <!-- Contact Info -->
    <rect x="40" y="94" width="220" height="4" rx="2" fill="#52525b"/>

    <!-- Summary -->
    <rect x="40" y="112" width="120" height="5" rx="1" fill="#e4e4e7"/>
    <rect x="40" y="122" width="220" height="3" rx="1" fill="#71717a"/>
    <rect x="40" y="129" width="210" height="3" rx="1" fill="#71717a"/>

    <!-- Experience -->
    <rect x="40" y="146" width="120" height="5" rx="1" fill="#e4e4e7"/>
    
    <rect x="40" y="156" width="140" height="4" rx="1" fill="#d4d4d8"/>
    <rect x="220" y="156" width="40" height="3" rx="1" fill="#52525b"/>
    <rect x="40" y="164" width="220" height="3" rx="1" fill="#71717a"/>
    <rect x="40" y="171" width="190" height="3" rx="1" fill="#71717a"/>

    <rect x="40" y="184" width="140" height="4" rx="1" fill="#d4d4d8"/>
    <rect x="40" y="192" width="220" height="3" rx="1" fill="#71717a"/>

    <!-- Education -->
    <rect x="40" y="210" width="120" height="5" rx="1" fill="#e4e4e7"/>
    <rect x="40" y="220" width="150" height="4" rx="1" fill="#d4d4d8"/>
    <rect x="40" y="228" width="180" height="3" rx="1" fill="#71717a"/>
  </svg>