<svg xmlns="http://www.w3.org/2000/svg" viewBox="0 0 300 400" width="100%" height="100%">
    <rect width="300" height="400" rx="12" fill="#09090b" stroke="#1f2937" stroke-width="2"/>
    <rect x="20" y="20" width="260" height="360" rx="8" fill="#18181b" stroke="#27272a" stroke-width="1"/>
    
    <!-- Profile Photo (minimal square outline) -->
    <rect x="40" y="38" width="30" height="30" rx="4" fill="none" stroke="#52525b" stroke-width="1"/>
    <path d="M43 65 C 43 60, 67 60, 67 65 Z" fill="#71717a"/>
    <circle cx="55" cy="48" r="4" fill="#71717a"/>

    <!-- Name next to square -->
    <rect x="80" y="42" width="130" height="8" rx="2" fill="#f4f4f5"/>
    <rect x="80" y="56" width="100" height="4" rx="1.5" fill="#52525b"/>

    <!-- Content -->
    <rect x="40" y="85" width="220" height="3" rx="1.5" fill="#3f3f46"/>
    
    <rect x="40" y="100" width="80" height="4" rx="2" fill="#a1a1aa"/>
    <rect x="40" y="110" width="220" height="3" rx="1.5" fill="#52525b"/>
    <rect x="40" y="117" width="200" height="3" rx="1.5" fill="#52525b"/>

    <rect x="40" y="132" width="80" height="4" rx="2" fill="#a1a1aa"/>
    <rect x="40" y="142" width="150" height="4" rx="2" fill="#d4d4d8"/>
    <rect x="40" y="150" width="220" height="3" rx="1.5" fill="#52525b"/>
  </svg>