<svg xmlns="http://www.w3.org/2000/svg" viewBox="0 0 300 400" width="100%" height="100%">
    <rect width="300" height="400" rx="12" fill="#09090b" stroke="#1f2937" stroke-width="2"/>
    <rect x="20" y="20" width="260" height="360" rx="8" fill="#18181b" stroke="#27272a" stroke-width="1"/>
    
    <!-- Profile Photo placeholder (left) -->
    <circle cx="58" cy="55" r="18" fill="#4f46e5" opacity="0.8"/>
    <circle cx="58" cy="55" r="14" fill="#312e81"/>
    <path d="M50 66 C 50 60, 66 60, 66 66 Z" fill="#a5b4fc"/>
    <circle cx="58" cy="51" r="5" fill="#a5b4fc"/>

    <!-- Header info next to image -->
    <rect x="88" y="42" width="120" height="8" rx="4" fill="#f8fafc"/>
    <rect x="88" y="56" width="90" height="5" rx="2.5" fill="#818cf8"/>
    
    <!-- Divider bar -->
    <rect x="40" y="85" width="220" height="2.5" rx="1" fill="#4f46e5"/>
    
    <!-- Contact Info -->
    <rect x="40" y="96" width="220" height="4" rx="2" fill="#71717a"/>
    
    <!-- Summary -->
    <rect x="40" y="112" width="100" height="6" rx="3" fill="#818cf8"/>
    <rect x="40" y="124" width="220" height="4" rx="2" fill="#52525b"/>
    <rect x="40" y="132" width="200" height="4" rx="2" fill="#52525b"/>

    <!-- Experience -->
    <rect x="40" y="152" width="100" height="6" rx="3" fill="#818cf8"/>
    
    <rect x="40" y="164" width="130" height="5" rx="2.5" fill="#a1a1aa"/>
    <rect x="210" y="164" width="50" height="4" rx="2" fill="#71717a"/>
    <rect x="40" y="172" width="220" height="3" rx="1.5" fill="#52525b"/>
    <rect x="40" y="179" width="180" height="3" rx="1.5" fill="#52525b"/>

    <rect x="40" y="194" width="130" height="5" rx="2.5" fill="#a1a1aa"/>
    <rect x="210" y="194" width="50" height="4" rx="2" fill="#71717a"/>
    <rect x="40" y="202" width="200" height="3" rx="1.5" fill="#52525b"/>

    <!-- Projects -->
    <rect x="40" y="222" width="100" height="6" rx="3" fill="#818cf8"/>
    <rect x="40" y="234" width="120" height="5" rx="2.5" fill="#a1a1aa"/>
    <rect x="40" y="242" width="220" height="3" rx="1.5" fill="#52525b"/>

    <!-- Skills -->
    <rect x="40" y="262" width="100" height="6" rx="3" fill="#818cf8"/>
    <rect x="40" y="274" width="220" height="4" rx="2" fill="#71717a"/>
    <rect x="40" y="282" width="180" height="4" rx="2" fill="#71717a"/>
  </svg>