<svg xmlns="http://www.w3.org/2000/svg" viewBox="0 0 300 400" width="100%" height="100%">
    <rect width="300" height="400" rx="12" fill="#09090b" stroke="#1f2937" stroke-width="2"/>
    <rect x="20" y="20" width="260" height="360" rx="8" fill="#18181b" stroke="#27272a" stroke-width="1"/>
    
    <!-- Left Sidebar (Gradient background mockup) -->
    <rect x="21" y="21" width="80" height="358" rx="0" fill="#202023" opacity="0.6"/>
    
    <!-- Profile Photo inside Sidebar -->
    <circle cx="61" cy="55" r="18" fill="#6366f1" opacity="0.8"/>
    <circle cx="61" cy="55" r="14" fill="#312e81"/>
    <path d="M53 66 C 53 60, 69 60, 69 66 Z" fill="#c7d2fe"/>
    <circle cx="61" cy="51" r="5" fill="#c7d2fe"/>

    <!-- Sidebar Contact Details -->
    <rect x="35" y="85" width="50" height="5" rx="2" fill="#6366f1" opacity="0.8"/>
    <rect x="35" y="96" width="50" height="3" rx="1.5" fill="#52525b"/>
    <rect x="35" y="103" width="40" height="3" rx="1.5" fill="#52525b"/>
    
    <!-- Sidebar Skills with progress bars -->
    <rect x="35" y="125" width="50" height="5" rx="2" fill="#6366f1" opacity="0.8"/>
    
    <rect x="35" y="136" width="30" height="3" rx="1.5" fill="#a1a1aa"/>
    <rect x="35" y="142" width="52" height="2" rx="1" fill="#27272a"/>
    <rect x="35" y="142" width="45" height="2" rx="1" fill="#6366f1"/>

    <rect x="35" y="150" width="40" height="3" rx="1.5" fill="#a1a1aa"/>
    <rect x="35" y="156" width="52" height="2" rx="1" fill="#27272a"/>
    <rect x="35" y="156" width="35" height="2" rx="1" fill="#6366f1"/>

    <!-- Right Side Name -->
    <rect x="115" y="36" width="110" height="8" rx="4" fill="#f8fafc"/>
    <rect x="115" y="48" width="80" height="5" rx="2.5" fill="#6366f1"/>
    
    <!-- Experience inside Rounded Cards -->
    <rect x="115" y="70" width="70" height="6" rx="3" fill="#6366f1" opacity="0.8"/>
    
    <!-- Card 1 -->
    <rect x="115" y="82" width="150" height="50" rx="6" fill="#1c1c1f" stroke="#2d2d30" stroke-width="1"/>
    <rect x="125" y="92" width="80" height="4" rx="2" fill="#f8fafc"/>
    <rect x="125" y="100" width="40" height="3" rx="1.5" fill="#71717a"/>
    <rect x="125" y="108" width="130" height="3" rx="1.5" fill="#52525b"/>
    <rect x="125" y="115" width="120" height="3" rx="1.5" fill="#52525b"/>

    <!-- Card 2 -->
    <rect x="115" y="138" width="150" height="40" rx="6" fill="#1c1c1f" stroke="#2d2d30" stroke-width="1"/>
    <rect x="125" y="148" width="90" height="4" rx="2" fill="#f8fafc"/>
    <rect x="125" y="156" width="120" height="3" rx="1.5" fill="#52525b"/>

    <!-- Education Inside Card -->
    <rect x="115" y="195" width="70" height="6" rx="3" fill="#6366f1" opacity="0.8"/>
    <rect x="115" y="207" width="150" height="40" rx="6" fill="#1c1c1f" stroke="#2d2d30" stroke-width="1"/>
  </svg>