<svg xmlns="http://www.w3.org/2000/svg" viewBox="0 0 300 400" width="100%" height="100%">
    <rect width="300" height="400" rx="12" fill="#09090b" stroke="#1f2937" stroke-width="2"/>
    <rect x="20" y="20" width="260" height="360" rx="8" fill="#18181b" stroke="#27272a" stroke-width="1"/>
    
    <!-- Profile Photo (left side) -->
    <circle cx="58" cy="55" r="18" fill="#10b981" opacity="0.8"/>
    <circle cx="58" cy="55" r="14" fill="#064e3b"/>
    <path d="M50 66 C 50 60, 66 60, 66 66 Z" fill="#a7f3d0"/>
    <circle cx="58" cy="51" r="5" fill="#a7f3d0"/>

    <!-- Header name -->
    <rect x="88" y="42" width="130" height="8" rx="4" fill="#f8fafc"/>
    <rect x="88" y="56" width="90" height="5" rx="2.5" fill="#10b981"/>
    
    <!-- Contact Info -->
    <rect x="40" y="85" width="220" height="4" rx="2" fill="#52525b"/>

    <!-- Category Block Header 1 -->
    <rect x="40" y="105" width="220" height="16" rx="4" fill="#1c1c1f"/>
    <rect x="50" y="110" width="80" height="6" rx="3" fill="#10b981"/>

    <!-- Experience Card Item 1 -->
    <rect x="40" y="128" width="220" height="45" rx="6" fill="#18181b" stroke="#27272a" stroke-width="1"/>
    <rect x="50" y="138" width="110" height="4" rx="2" fill="#f8fafc"/>
    <rect x="50" y="146" width="190" height="3" rx="1.5" fill="#71717a"/>
    <rect x="50" y="153" width="170" height="3" rx="1.5" fill="#71717a"/>

    <!-- Category Block Header 2 -->
    <rect x="40" y="185" width="220" height="16" rx="4" fill="#1c1c1f"/>
    <rect x="50" y="190" width="80" height="6" rx="3" fill="#10b981"/>

    <!-- Experience Card Item 2 -->
    <rect x="40" y="208" width="220" height="35" rx="6" fill="#18181b" stroke="#27272a" stroke-width="1"/>
    <rect x="50" y="218" width="130" height="4" rx="2" fill="#f8fafc"/>
    <rect x="50" y="226" width="195" height="3" rx="1.5" fill="#71717a"/>

    <!-- Skills pills outline -->
    <rect x="40" y="255" width="220" height="16" rx="4" fill="#1c1c1f"/>
    <rect x="50" y="260" width="80" height="6" rx="3" fill="#10b981"/>
    
    <rect x="40" y="280" width="50" height="10" rx="5" fill="#18181b" stroke="#10b981" stroke-width="0.5"/>
    <rect x="95" y="280" width="60" height="10" rx="5" fill="#18181b" stroke="#10b981" stroke-width="0.5"/>
    <rect x="160" y="280" width="50" height="10" rx="5" fill="#18181b" stroke="#10b981" stroke-width="0.5"/>
  </svg>