<svg xmlns="http://www.w3.org/2000/svg" viewBox="0 0 300 400" width="100%" height="100%">
    <rect width="300" height="400" rx="12" fill="#09090b" stroke="#1f2937" stroke-width="2"/>
    <rect x="20" y="20" width="260" height="360" rx="8" fill="#18181b" stroke="#27272a" stroke-width="1"/>
    
    <!-- Profile Photo (left-aligned) -->
    <circle cx="58" cy="55" r="18" fill="#3b82f6" opacity="0.8"/>
    <circle cx="58" cy="55" r="14" fill="#1e3a8a"/>
    <path d="M50 66 C 50 60, 66 60, 66 66 Z" fill="#93c5fd"/>
    <circle cx="58" cy="51" r="5" fill="#93c5fd"/>

    <!-- Header name -->
    <rect x="88" y="42" width="130" height="8" rx="4" fill="#f8fafc"/>
    <rect x="88" y="56" width="90" height="5" rx="2.5" fill="#3b82f6"/>
    
    <!-- Contact Info Row -->
    <rect x="40" y="85" width="220" height="4" rx="2" fill="#52525b"/>

    <!-- Timeline Area -->
    <rect x="40" y="105" width="90" height="6" rx="3" fill="#3b82f6" opacity="0.8"/>

    <!-- Timeline vertical connecting line -->
    <line x1="48" y1="125" x2="48" y2="250" stroke="#3b82f6" stroke-width="1.5" stroke-dasharray="2,2"/>
    
    <!-- Entry 1 -->
    <circle cx="48" cy="130" r="4.5" fill="#18181b" stroke="#3b82f6" stroke-width="1.5"/>
    <rect x="62" y="125" width="120" height="5" rx="2" fill="#f8fafc"/>
    <rect x="62" y="133" width="190" height="3" rx="1.5" fill="#71717a"/>
    <rect x="62" y="140" width="180" height="3" rx="1.5" fill="#71717a"/>

    <!-- Entry 2 -->
    <circle cx="48" cy="165" r="4.5" fill="#18181b" stroke="#3b82f6" stroke-width="1.5"/>
    <rect x="62" y="160" width="100" height="5" rx="2" fill="#f8fafc"/>
    <rect x="62" y="168" width="190" height="3" rx="1.5" fill="#71717a"/>

    <!-- Entry 3 -->
    <circle cx="48" cy="200" r="4.5" fill="#18181b" stroke="#3b82f6" stroke-width="1.5"/>
    <rect x="62" y="195" width="110" height="5" rx="2" fill="#f8fafc"/>
    <rect x="62" y="203" width="150" height="3" rx="1.5" fill="#71717a"/>

    <!-- Skills Section with tag pills -->
    <rect x="40" y="235" width="90" height="6" rx="3" fill="#3b82f6" opacity="0.8"/>
    <rect x="40" y="248" width="45" height="10" rx="3" fill="#1e3a8a" stroke="#3b82f6" stroke-width="0.5"/>
    <rect x="90" y="248" width="55" height="10" rx="3" fill="#1e3a8a" stroke="#3b82f6" stroke-width="0.5"/>
    <rect x="150" y="248" width="40" height="10" rx="3" fill="#1e3a8a" stroke="#3b82f6" stroke-width="0.5"/>
    <rect x="195" y="248" width="60" height="10" rx="3" fill="#1e3a8a" stroke="#3b82f6" stroke-width="0.5"/>
  </svg>